<?xml version="1.0" standalone="no"?>
<!DOCTYPE svg PUBLIC "-//W3C//DTD SVG 20010904//EN"
 "http://www.w3.org/TR/2001/REC-SVG-20010904/DTD/svg10.dtd">
<svg version="1.0" xmlns="http://www.w3.org/2000/svg"
 width="129.000000pt" height="129.000000pt" viewBox="0 0 129.000000 129.000000"
 preserveAspectRatio="xMidYMid meet">
<metadata>
Created by potrace 1.11, written by Peter Selinger 2001-2013
</metadata>
<g transform="translate(0.000000,129.000000) scale(0.100000,-0.100000)"
fill="#000000" stroke="none">
<path d="M245 1266 c-41 -18 -92 -77 -105 -123 -8 -26 -10 -188 -8 -518 3
-540 0 -513 81 -579 l39 -31 393 0 393 0 39 31 c79 64 78 58 81 429 2 182 0
345 -3 364 -5 27 -43 71 -178 209 -95 96 -190 188 -211 203 l-39 29 -226 0
c-164 -1 -234 -4 -256 -14z m602 -288 l173 -173 0 -306 c0 -287 -1 -308 -19
-330 l-19 -24 -337 0 -337 0 -19 24 c-18 22 -19 45 -19 471 0 258 4 459 9 474
13 31 22 33 226 35 l170 1 172 -172z"/>
<path d="M805 768 c-11 -6 -23 -16 -27 -22 -4 -6 -8 -109 -8 -228 0 -205 1
-219 20 -238 11 -11 31 -20 45 -20 14 0 34 9 45 20 19 19 20 33 20 238 0 119
-4 222 -8 228 -8 12 -46 34 -59 34 -4 0 -17 -6 -28 -12z"/>
<path d="M602 634 c-21 -15 -22 -21 -22 -175 0 -146 2 -161 20 -179 11 -11 31
-20 45 -20 14 0 34 9 45 20 18 18 20 33 20 179 0 154 -1 160 -22 175 -12 9
-32 16 -43 16 -11 0 -31 -7 -43 -16z"/>
<path d="M440 522 c-43 -14 -50 -32 -50 -129 0 -103 15 -133 65 -133 50 0 65
30 65 133 0 77 -3 97 -17 109 -23 19 -44 26 -63 20z"/>
</g>
</svg>
